# xmcd
#
# Track frame offsets:
#	150
#	16595
#	34271
#	50656
#	77470
#	96679
#	115722
#	131358
#	150589
#	172265
#	188463
#	207898
#
# Disc length: 3084 seconds
#
# Revision: 1
# Processed by: cddbd v1.5PL3 Copyright (c) Steve Scherf et al.
# Submitted via: audiograbber 1.81.02
#
DISCID=930c0a0c
DTITLE=The Steepwater Band - Dharmakaya
DYEAR=2004
DGENRE=Blues/Rock
TTITLE0=Gettin' By
TTITLE1=Dead Horse
TTITLE2=Back to the Bottle
TTITLE3=Dharmakaya
TTITLE4=Oh I Wept
TTITLE5=Jammin' Down Southern
TTITLE6=Black Cats Path
TTITLE7=Waiting on the Devil
TTITLE8=House is Burning
TTITLE9=Autumn
TTITLE10=Ride Free
TTITLE11=Another Cold Letdown
EXTD=
EXTT0=
EXTT1=
EXTT2=
EXTT3=
EXTT4=
EXTT5=
EXTT6=
EXTT7=
EXTT8=
EXTT9=
EXTT10=
EXTT11=
PLAYORDER=
